<svg xmlns="http://www.w3.org/2000/svg" xmlns:xlink="http://www.w3.org/1999/xlink" width="500" zoomAndPan="magnify" viewBox="0 0 400 374.999991" height="500" preserveAspectRatio="xMidYMid meet" version="1.0"><defs><clipPath id="4a67c8a441"><path d="M 0 130.78125 L 371 130.78125 L 371 199 L 0 199 Z M 0 130.78125 " clip-rule="nonzero"/></clipPath></defs><path fill="#f5c000" d="M 123.292969 175.226562 C 123.0625 175.226562 122.984375 175.304688 123.292969 175.226562 Z M 123.292969 175.226562 " fill-opacity="1" fill-rule="nonzero"/><path fill="#f5c000" d="M 262.339844 178.664062 C 262.414062 178.664062 262.414062 178.664062 262.492188 178.664062 C 262.570312 178.511719 262.722656 178.359375 262.796875 178.28125 Z M 262.339844 178.664062 " fill-opacity="1" fill-rule="nonzero"/><path fill="#f5c000" d="M 284.671875 180.648438 C 284.75 180.648438 284.75 180.648438 284.824219 180.726562 C 284.824219 180.648438 284.824219 180.570312 284.671875 180.648438 Z M 284.671875 180.648438 " fill-opacity="1" fill-rule="nonzero"/><path fill="#f5c000" d="M 210.789062 177.898438 C 210.558594 177.898438 210.484375 177.898438 210.40625 177.976562 C 210.484375 177.976562 210.636719 177.976562 210.789062 177.898438 Z M 210.789062 177.898438 " fill-opacity="1" fill-rule="nonzero"/><path fill="#f5c000" d="M 82.296875 175.457031 C 82.296875 175.457031 82.371094 175.457031 82.371094 175.457031 C 82.296875 175.457031 82.21875 175.378906 82.144531 175.378906 Z M 82.296875 175.457031 " fill-opacity="1" fill-rule="nonzero"/><path fill="#f5c000" d="M 82.753906 175.226562 C 83.214844 175.378906 82.601562 175.457031 82.371094 175.457031 C 82.910156 175.683594 83.445312 175.683594 83.980469 175.609375 C 83.980469 175.378906 82.984375 175.378906 82.753906 175.226562 Z M 82.753906 175.226562 " fill-opacity="1" fill-rule="nonzero"/><path fill="#f5c000" d="M 7.035156 179.578125 L 7.265625 179.425781 C 7.113281 179.425781 7.035156 179.503906 7.035156 179.578125 Z M 7.035156 179.578125 " fill-opacity="1" fill-rule="nonzero"/><path fill="#f5c000" d="M 212.546875 189.507812 C 212.472656 189.507812 212.320312 189.507812 212.242188 189.582031 C 212.394531 189.582031 212.472656 189.507812 212.546875 189.507812 Z M 212.546875 189.507812 " fill-opacity="1" fill-rule="nonzero"/><path fill="#f5c000" d="M 19.199219 177.136719 L 19.273438 176.753906 C 19.199219 176.90625 19.121094 177.058594 19.199219 177.136719 Z M 19.199219 177.136719 " fill-opacity="1" fill-rule="nonzero"/><path fill="#f5c000" d="M 262.796875 178.28125 L 262.953125 178.128906 C 262.875 178.207031 262.875 178.207031 262.796875 178.28125 Z M 262.796875 178.28125 " fill-opacity="1" fill-rule="nonzero"/><path fill="#f5c000" d="M 305.324219 182.023438 C 305.324219 182.097656 305.398438 182.253906 305.398438 182.328125 C 305.398438 182.328125 305.476562 182.328125 305.476562 182.328125 Z M 305.324219 182.023438 " fill-opacity="1" fill-rule="nonzero"/><path fill="#f5c000" d="M 318.324219 144.378906 C 318.324219 144.378906 318.25 144.457031 318.25 144.53125 L 318.707031 144.761719 C 318.476562 144.53125 318.402344 144.457031 318.324219 144.378906 Z M 318.324219 144.378906 " fill-opacity="1" fill-rule="nonzero"/><path fill="#f5c000" d="M 333.085938 185.230469 C 333.085938 185.152344 333.164062 185.152344 333.164062 185.078125 C 333.085938 185.078125 333.011719 185 332.933594 185 C 332.859375 185 332.859375 185 332.78125 185 C 332.78125 185 332.550781 185 332.398438 184.925781 C 331.785156 184.847656 331.097656 184.847656 330.257812 184.773438 L 330.105469 185.230469 C 330.105469 185.230469 330.945312 185.230469 331.785156 185.230469 C 332.859375 185.230469 333.085938 185.230469 333.085938 185.230469 Z M 333.085938 185.230469 " fill-opacity="1" fill-rule="nonzero"/><g clip-path="url(#4a67c8a441)"><path fill="#f5c000" d="M 351.976562 180.726562 C 351.976562 180.726562 352.742188 181.792969 353.507812 182.9375 C 354.195312 183.933594 354.886719 185 354.886719 185 C 353.203125 183.320312 351.597656 181.792969 350.21875 180.34375 C 348.917969 178.890625 347.695312 177.519531 346.546875 176.21875 C 346.011719 175.53125 345.402344 174.921875 344.867188 174.3125 C 344.484375 173.851562 344.175781 173.394531 343.792969 173.011719 C 343.257812 172.324219 342.800781 171.714844 342.265625 171.027344 C 340.277344 168.429688 338.441406 165.910156 335.839844 162.855469 L 336.222656 163.085938 C 335.992188 162.550781 335.304688 162.476562 334.082031 160.949219 C 333.46875 160.183594 332.703125 159.117188 331.785156 157.4375 C 330.867188 155.757812 329.796875 153.464844 328.652344 150.410156 L 328.726562 150.335938 C 328.496094 149.953125 328.34375 150.03125 328.039062 149.1875 C 328.039062 149.1875 328.191406 149.722656 328.34375 150.257812 C 328.496094 150.792969 328.726562 151.328125 328.726562 151.328125 C 327.808594 150.335938 326.816406 149.496094 325.898438 148.042969 C 325.820312 147.664062 325.898438 147.433594 325.972656 147.355469 C 325.972656 147.355469 325.363281 146.441406 324.828125 145.523438 C 324.292969 144.609375 323.679688 143.617188 323.679688 143.617188 L 323.527344 142.164062 C 322.609375 141.171875 321.765625 142.242188 320.695312 138.726562 C 320.542969 140.332031 319.394531 137.355469 319.242188 137.964844 C 319.242188 137.734375 319.242188 137.277344 319.167969 136.972656 C 318.097656 135.140625 316.109375 131.550781 315.265625 130.863281 C 315.265625 130.863281 315.800781 132.925781 316.261719 135.367188 C 316.796875 137.734375 317.40625 140.484375 317.5625 141.707031 C 316.335938 138.882812 317.101562 141.019531 317.101562 141.707031 L 317.40625 141.78125 C 318.097656 143.539062 317.636719 143.769531 317.867188 144.683594 C 317.941406 144.683594 317.941406 144.609375 317.941406 144.53125 L 317.789062 144.457031 C 317.867188 144.300781 317.941406 144.378906 318.019531 144.378906 C 318.097656 144.300781 318.25 144.300781 318.476562 144.761719 L 318.402344 144.683594 C 318.859375 145.296875 319.394531 146.515625 319.703125 147.050781 L 319.320312 147.28125 C 320.007812 147.664062 320.847656 149.800781 321.691406 152.089844 C 322.53125 154.382812 323.296875 156.75 323.832031 157.511719 C 324.367188 159.421875 326.203125 160.949219 327.273438 163.011719 C 329.261719 166.140625 327.734375 164.917969 328.496094 166.675781 C 329.644531 168.738281 328.652344 165.988281 329.261719 166.75 C 329.261719 166.75 329.570312 167.4375 329.796875 168.050781 C 330.105469 168.738281 330.332031 169.347656 330.332031 169.347656 C 329.339844 168.050781 329.644531 168.964844 329.644531 169.269531 C 330.332031 170.265625 331.097656 171.636719 331.785156 172.785156 C 332.550781 173.929688 333.238281 174.84375 333.851562 174.84375 C 335.535156 177.746094 335.304688 177.898438 336.144531 179.046875 C 335.992188 178.585938 335.535156 177.746094 335.609375 177.59375 C 336.144531 178.890625 336.070312 178.050781 335.839844 177.519531 C 336.070312 177.671875 336.300781 177.976562 336.527344 178.28125 C 336.679688 178.433594 336.757812 178.664062 336.910156 178.816406 C 336.988281 178.890625 337.0625 179.046875 337.140625 179.121094 C 337.21875 179.199219 337.21875 179.199219 337.21875 179.273438 L 337.292969 179.351562 C 337.523438 179.886719 337.828125 180.417969 337.980469 180.878906 C 338.363281 181.792969 338.441406 182.328125 339.28125 182.558594 L 338.976562 182.480469 C 339.589844 182.632812 340.199219 182.710938 340.734375 182.863281 C 341.269531 182.9375 341.730469 183.09375 342.417969 183.550781 C 342.417969 183.550781 342.265625 183.855469 342.265625 183.855469 L 343.488281 184.695312 C 343.488281 185 342.875 184.621094 342.722656 184.621094 C 343.640625 185.382812 344.328125 186.070312 344.867188 186.679688 C 345.324219 187.0625 344.484375 186.757812 344.101562 186.757812 C 343.640625 186.679688 343.257812 186.605469 342.800781 186.605469 C 342.800781 186.605469 344.253906 187.214844 345.9375 187.828125 C 347.617188 188.4375 349.453125 189.046875 349.453125 189.046875 C 348 188.742188 346.011719 188.285156 344.253906 187.902344 C 342.800781 187.597656 341.804688 187.445312 342.1875 187.828125 C 342.1875 187.828125 341.652344 187.597656 341.117188 187.445312 C 340.660156 187.214844 340.125 187.0625 340.125 187.0625 C 338.898438 186.679688 338.289062 186.527344 337.90625 186.453125 C 337.523438 186.453125 337.445312 186.527344 337.371094 186.605469 C 337.292969 186.832031 337.523438 187.214844 336.679688 186.984375 C 336.679688 186.984375 336.144531 186.757812 335.609375 186.527344 C 335.074219 186.300781 334.691406 186.070312 334.691406 186.070312 L 336.144531 186.144531 C 335.304688 185.917969 334.769531 185.6875 334.234375 185.535156 C 333.773438 185.304688 333.316406 185.152344 332.859375 184.847656 C 332.933594 184.847656 332.933594 184.925781 333.011719 185 L 332.859375 185 C 332.859375 185.078125 332.78125 185.152344 332.703125 185.230469 C 332.628906 185.230469 332.628906 185.304688 332.550781 185.304688 C 332.550781 185.304688 332.476562 185.304688 332.476562 185.382812 C 332.398438 185.382812 332.320312 185.382812 332.246094 185.382812 C 331.710938 185.460938 331.023438 185.460938 330.179688 185.382812 C 327.886719 185.152344 326.050781 185.613281 322.378906 184.542969 L 321.386719 185.230469 L 318.632812 184.621094 L 318.632812 184.007812 C 321.308594 184.238281 326.433594 184.238281 329.949219 184.464844 L 330.027344 184.160156 C 327.960938 184.007812 325.589844 184.160156 324.214844 184.007812 C 323.527344 183.855469 321.921875 183.09375 323.144531 182.785156 L 321.84375 183.320312 C 314.960938 183.015625 314.882812 183.015625 307.769531 181.945312 L 308.382812 182.253906 C 306.929688 182.328125 305.476562 182.480469 305.171875 181.945312 C 300.886719 181.640625 296.375 180.953125 293.621094 180.039062 L 292.933594 180.726562 C 292.015625 180.648438 290.714844 179.503906 290.179688 180.496094 L 288.191406 180.726562 C 286.96875 180.570312 286.125 180.953125 284.75 180.496094 C 284.671875 180.496094 284.597656 180.417969 284.519531 180.417969 C 284.519531 180.417969 284.519531 180.496094 284.519531 180.496094 C 281.691406 180.039062 284.519531 181.105469 281.308594 180.570312 C 280.3125 180.039062 280.082031 181.414062 278.554688 181.183594 L 277.023438 180.113281 C 274.195312 179.351562 273.660156 180.417969 269.527344 180.191406 C 267.539062 179.730469 266.621094 178.816406 268 178.128906 C 266.164062 178.96875 267.15625 178.738281 264.710938 179.046875 C 264.328125 178.664062 264.632812 178.585938 265.167969 178.28125 C 263.027344 177.746094 263.867188 178.585938 262.261719 178.433594 C 261.726562 179.121094 261.191406 180.265625 260.65625 180.265625 L 261.269531 180.496094 C 259.585938 180.800781 257.671875 180.878906 255.683594 180.417969 L 255.761719 180.039062 L 253.925781 180.417969 L 253.851562 179.960938 L 250.867188 179.960938 L 251.25 180.113281 C 250.5625 180.113281 248.191406 180.191406 246.890625 179.886719 L 246.964844 179.65625 C 243.296875 178.664062 240.160156 179.578125 235.722656 179.503906 L 236.335938 178.96875 C 234.882812 178.359375 235.875 179.730469 234.117188 179.425781 L 234.039062 178.738281 C 232.433594 179.503906 232.050781 178.511719 230.980469 178.128906 L 231.441406 178.96875 L 229.453125 178.738281 C 227.234375 178.359375 228.152344 177.59375 228.457031 177.136719 L 226.925781 177.746094 L 226.621094 176.984375 C 225.472656 177.824219 225.550781 176.832031 223.5625 177.210938 C 223.410156 176.90625 223.945312 176.753906 223.257812 176.601562 L 219.96875 177.519531 L 221.957031 177.136719 L 221.648438 178.207031 C 219.585938 178.96875 218.898438 177.976562 217.445312 178.207031 L 218.4375 177.898438 C 216.066406 178.050781 215.988281 177.59375 214.613281 177.289062 C 214.996094 177.519531 215.609375 177.824219 214.691406 177.976562 C 214 177.976562 214.308594 177.59375 213.695312 177.441406 C 213.542969 178.207031 211.785156 178.511719 210.253906 178.128906 C 210.253906 178.050781 210.332031 177.898438 210.40625 177.898438 C 210.023438 177.976562 209.796875 178.207031 209.105469 177.976562 L 209.566406 177.136719 L 208.265625 177.898438 C 207.425781 177.671875 206.125 178.207031 206.199219 177.671875 L 206.734375 177.519531 L 200.15625 177.058594 L 200.082031 176.371094 C 199.394531 177.210938 196.488281 175.914062 196.640625 177.058594 C 195.417969 176.371094 191.746094 177.363281 192.507812 176.066406 C 188.148438 175.839844 185.777344 176.984375 180.5 176.21875 C 178.667969 175.074219 173.464844 175.304688 170.101562 175.074219 C 163.445312 175.378906 159.164062 175.609375 152.355469 175.839844 C 148.300781 174.234375 142.183594 176.144531 137.824219 175.152344 L 136.601562 175.683594 C 133.695312 174.691406 129.257812 175.761719 125.128906 174.769531 C 124.132812 175 123.597656 175.074219 123.367188 175.074219 C 123.519531 175.074219 123.828125 175.226562 123.902344 175.609375 C 122.757812 175.304688 120.386719 175.609375 120.539062 174.84375 L 120.84375 174.769531 C 120.996094 174.003906 117.324219 175.074219 116.027344 174.386719 L 116.714844 175.226562 L 114.496094 175.074219 L 115.109375 174.921875 C 105.472656 176.601562 101.1875 173.929688 92.085938 175.457031 C 93.308594 174.617188 90.328125 175.914062 90.175781 174.921875 C 87.878906 173.699219 85.96875 175.152344 84.054688 175.457031 C 84.054688 175.53125 84.054688 175.53125 83.902344 175.609375 L 80.613281 175.457031 C 82.601562 174.234375 78.242188 176.449219 80.078125 175.457031 C 71.589844 174.464844 60.421875 175.304688 50.632812 174.84375 L 51.089844 175.152344 C 48.566406 175.074219 45.507812 175.457031 43.597656 174.921875 C 41.683594 174.386719 39.464844 175.683594 38.699219 175.761719 C 36.636719 176.296875 34.648438 175.226562 35.566406 175.304688 C 33.269531 175.457031 31.207031 176.601562 28.070312 176.296875 C 27.535156 175.839844 25.316406 176.144531 23.328125 176.601562 C 21.261719 177.058594 19.425781 177.519531 19.273438 176.90625 L 19.273438 176.984375 C 18.203125 176.90625 17.207031 176.984375 16.214844 177.210938 C 15.679688 177.289062 15.21875 177.441406 14.683594 177.519531 C 14.226562 177.671875 13.691406 177.824219 13.15625 177.976562 C 11.167969 178.511719 9.179688 179.273438 6.882812 179.578125 C 6.882812 179.578125 6.960938 179.503906 7.035156 179.351562 C 7.035156 179.351562 6.578125 179.730469 5.8125 180.34375 C 5.125 180.953125 4.207031 181.71875 3.289062 182.558594 C 2.828125 182.9375 2.449219 183.398438 1.988281 183.777344 C 1.605469 184.160156 1.222656 184.542969 0.917969 184.925781 C 0.382812 185.765625 0 186.222656 0 186.222656 C 0 186.222656 0.996094 186.832031 1.988281 187.445312 C 2.90625 188.054688 3.824219 188.742188 3.824219 188.742188 C 3.824219 188.742188 3.976562 188.742188 4.128906 188.742188 C 4.359375 188.742188 4.664062 188.742188 4.972656 188.742188 C 5.660156 188.742188 6.652344 188.742188 7.570312 188.894531 C 8.488281 188.972656 9.40625 189.046875 10.097656 189.199219 C 10.785156 189.277344 11.242188 189.351562 11.242188 189.351562 C 11.242188 189.351562 11.472656 189.277344 12.007812 189.125 C 12.46875 188.972656 13.15625 188.742188 13.996094 188.511719 C 15.679688 188.054688 17.898438 187.519531 20.191406 187.140625 C 21.339844 186.910156 22.5625 186.757812 23.632812 186.605469 C 24.78125 186.453125 25.773438 186.300781 26.691406 186.222656 C 28.527344 186.070312 29.753906 185.992188 29.753906 185.992188 C 29.753906 185.992188 30.746094 185.992188 32.199219 186.070312 C 33.652344 186.144531 35.640625 186.300781 37.628906 186.453125 C 41.683594 186.757812 45.660156 187.0625 45.660156 187.0625 C 45.660156 187.0625 55.527344 186.984375 65.394531 186.910156 C 75.261719 186.910156 85.125 186.832031 85.125 186.832031 L 87.957031 185.992188 C 95.679688 187.597656 105.625 185.992188 113.960938 187.214844 L 114.113281 186.453125 C 116.484375 186.453125 116.332031 186.910156 116.867188 187.0625 C 138.742188 187.292969 161.304688 186.832031 180.960938 188.359375 C 182.871094 188.894531 188.609375 188.820312 190.0625 189.351562 C 196.488281 188.589844 203.21875 188.894531 209.640625 189.199219 L 209.414062 189.277344 L 212.394531 189.199219 C 212.546875 189.277344 212.546875 189.351562 212.472656 189.429688 C 215.914062 188.894531 221.191406 189.734375 225.398438 190.191406 L 225.167969 190.269531 C 249.414062 191.339844 272.054688 190.957031 296.070312 193.324219 C 301.652344 194.238281 307.695312 194.46875 313.964844 194.699219 C 317.101562 194.773438 320.3125 194.925781 323.449219 195.082031 C 325.054688 195.15625 326.664062 195.308594 328.269531 195.460938 L 330.640625 195.691406 L 331.863281 195.84375 L 334.082031 196.074219 C 335.382812 196.378906 340.582031 196.835938 347.464844 197.292969 C 354.273438 197.753906 362.761719 198.289062 370.257812 198.667969 C 365.746094 194.238281 361.539062 190.117188 358.25 186.832031 C 355.039062 183.625 352.742188 181.414062 351.976562 180.726562 Z M 351.976562 180.726562 " fill-opacity="1" fill-rule="nonzero"/></g><path fill="#f5c000" d="M 326.050781 147.28125 L 326.125 147.355469 C 326.355469 147.203125 326.203125 147.128906 326.050781 147.28125 Z M 326.050781 147.28125 " fill-opacity="1" fill-rule="nonzero"/><path fill="#f5c000" d="M 342.800781 186.757812 C 342.875 186.757812 342.875 186.757812 342.953125 186.757812 L 341.652344 186.222656 Z M 342.800781 186.757812 " fill-opacity="1" fill-rule="nonzero"/><path fill="#f5c000" d="M 328.957031 168.277344 C 329.796875 169.652344 329.875 169.652344 329.875 169.347656 C 329.492188 168.890625 329.1875 168.507812 328.957031 168.277344 Z M 328.957031 168.277344 " fill-opacity="1" fill-rule="nonzero"/><path fill="#f5c000" d="M 319.625 136.742188 C 319.320312 136.054688 319.242188 136.363281 319.242188 136.894531 C 319.625 137.582031 319.933594 138.117188 319.933594 138.117188 C 319.855469 137.660156 319.777344 137.203125 319.625 136.742188 Z M 319.625 136.742188 " fill-opacity="1" fill-rule="nonzero"/><path fill="#f5c000" d="M 317.332031 141.628906 L 316.949219 141.554688 C 317.253906 141.933594 317.332031 141.859375 317.332031 141.628906 Z M 317.332031 141.628906 " fill-opacity="1" fill-rule="nonzero"/><path fill="#f5c000" d="M 327.886719 220.355469 C 327.808594 220.355469 327.886719 220.429688 327.886719 220.355469 Z M 327.886719 220.355469 " fill-opacity="1" fill-rule="nonzero"/><path fill="#f5c000" d="M 345.476562 202.488281 C 345.476562 202.488281 345.476562 202.410156 345.476562 202.488281 C 345.402344 202.335938 345.324219 202.257812 345.324219 202.105469 Z M 345.476562 202.488281 " fill-opacity="1" fill-rule="nonzero"/><path fill="#f5c000" d="M 349.226562 200.652344 C 349.226562 200.578125 349.148438 200.5 349.226562 200.652344 Z M 349.226562 200.652344 " fill-opacity="1" fill-rule="nonzero"/><path fill="#f5c000" d="M 323.449219 226.386719 C 323.449219 226.386719 323.449219 226.308594 323.449219 226.386719 C 323.449219 226.386719 323.375 226.386719 323.375 226.308594 Z M 323.449219 226.386719 " fill-opacity="1" fill-rule="nonzero"/><path fill="#f5c000" d="M 323.296875 226.15625 C 323.449219 226.15625 323.449219 226.308594 323.449219 226.386719 C 323.679688 226.464844 323.757812 226.386719 323.757812 226.234375 C 323.601562 226.082031 323.449219 226.234375 323.296875 226.15625 Z M 323.296875 226.15625 " fill-opacity="1" fill-rule="nonzero"/><path fill="#f5c000" d="M 315.417969 237 L 315.34375 236.925781 C 315.417969 236.925781 315.417969 237 315.417969 237 Z M 315.417969 237 " fill-opacity="1" fill-rule="nonzero"/><path fill="#f5c000" d="M 316.949219 235.472656 L 316.644531 235.242188 C 316.71875 235.398438 316.871094 235.472656 316.949219 235.472656 Z M 316.949219 235.472656 " fill-opacity="1" fill-rule="nonzero"/><path fill="#f5c000" d="M 345.324219 202.105469 L 345.246094 201.953125 C 345.246094 202.027344 345.246094 202.027344 345.324219 202.105469 Z M 345.324219 202.105469 " fill-opacity="1" fill-rule="nonzero"/><path fill="#f5c000" d="M 352.285156 198.515625 C 352.359375 198.59375 352.4375 198.667969 352.4375 198.746094 Z M 352.285156 198.515625 " fill-opacity="1" fill-rule="nonzero"/><path fill="#f5c000" d="M 370.871094 192.789062 C 370.871094 192.789062 370.792969 192.714844 370.792969 192.636719 L 370.871094 192.867188 C 370.871094 192.867188 370.871094 192.867188 370.871094 192.789062 Z M 370.871094 192.789062 " fill-opacity="1" fill-rule="nonzero"/><path fill="#f5c000" d="M 357.332031 196.761719 C 357.332031 196.761719 357.332031 196.683594 357.253906 196.605469 C 357.101562 196.53125 356.875 196.683594 356.71875 196.835938 L 356.949219 197.21875 Z M 357.332031 196.761719 " fill-opacity="1" fill-rule="nonzero"/><path fill="#f5c000" d="M 367.964844 202.335938 L 367.046875 201.875 C 368.191406 200.578125 369.339844 200.882812 370.105469 199.507812 L 370.179688 199.738281 C 370.488281 199.8125 369.417969 197.980469 372.707031 198.898438 L 372.78125 198.972656 C 372.859375 198.898438 372.707031 198.746094 373.011719 198.898438 L 372.398438 198.667969 C 372.476562 198.363281 372.398438 197.90625 372.628906 197.675781 C 372.707031 197.753906 372.859375 197.90625 372.933594 197.980469 L 373.46875 197.445312 L 374.003906 197.828125 C 374.003906 197.445312 373.242188 196.453125 374.160156 196.683594 C 373.46875 196.074219 374.160156 196.074219 373.851562 195.765625 C 373.929688 195.84375 374.082031 195.921875 374.234375 195.996094 C 374.464844 195.691406 375 195.15625 374.847656 194.621094 C 374.847656 194.621094 372.628906 193.859375 371.789062 193.324219 C 372.398438 193.246094 371.863281 193.171875 371.632812 192.941406 L 371.710938 193.171875 C 371.328125 193.171875 371.023438 192.714844 370.792969 192.636719 C 370.792969 192.636719 370.871094 192.714844 370.871094 192.789062 L 370.871094 192.714844 C 370.945312 192.789062 370.945312 192.867188 370.945312 192.867188 C 371.023438 192.941406 371.023438 193.019531 370.945312 193.09375 L 370.945312 193.019531 C 370.871094 193.171875 370.640625 193.246094 370.488281 193.246094 L 370.257812 192.867188 C 370.5625 193.707031 368.191406 192.636719 367.886719 192.789062 C 367.273438 192.484375 367.351562 193.324219 366.894531 193.324219 C 366.28125 193.554688 366.28125 192.941406 365.746094 192.789062 C 365.210938 192.789062 366.128906 193.171875 365.976562 193.324219 L 365.210938 193.09375 C 365.441406 192.867188 365.132812 192.714844 364.980469 192.636719 C 364.597656 192.789062 363.527344 192.484375 363.988281 193.324219 C 363.296875 193.246094 363.070312 192.941406 362.839844 193.09375 C 362.992188 193.171875 363.222656 193.246094 363.296875 193.398438 C 362.914062 193.171875 363.296875 193.554688 363.375 193.554688 C 363.296875 194.085938 360.925781 193.246094 361.460938 194.085938 L 361.386719 193.933594 C 361.769531 194.621094 362.304688 195.082031 362.304688 195.613281 L 361.996094 195.460938 L 361.996094 195.84375 C 361.691406 195.765625 361.691406 195.539062 361.617188 195.460938 C 361.460938 195.996094 360.773438 195.996094 360.316406 196.148438 L 361.921875 197.523438 C 361.308594 197.371094 360.164062 196.988281 360.46875 197.601562 L 359.855469 197.21875 C 358.402344 196.605469 359.703125 197.980469 359.246094 197.90625 L 358.480469 197.523438 L 358.785156 197.292969 C 358.25 197.21875 357.945312 197.140625 357.410156 196.914062 C 357.410156 196.914062 357.484375 196.914062 357.484375 196.988281 L 357.484375 197.066406 C 357.636719 197.371094 357.636719 197.753906 357.410156 197.90625 C 357.027344 198.058594 357.101562 198.667969 356.109375 198.441406 L 356.414062 199.128906 L 355.726562 199.050781 L 355.34375 198.59375 C 355.726562 198.363281 356.339844 197.601562 356.875 197.21875 L 356.71875 196.988281 C 356.414062 197.21875 356.261719 197.675781 356.03125 197.753906 C 355.878906 197.753906 355.265625 197.371094 355.191406 196.914062 L 355.34375 197.523438 C 354.347656 198.289062 354.425781 198.363281 352.972656 198.59375 L 353.277344 198.746094 C 353.203125 199.050781 353.050781 199.355469 352.742188 198.972656 C 352.054688 199.355469 351.214844 199.585938 350.296875 199.28125 L 350.679688 199.890625 C 350.523438 199.96875 349.683594 199.28125 350.21875 200.121094 L 350.144531 200.578125 C 349.914062 200.652344 350.066406 201.113281 349.605469 200.960938 C 349.605469 200.960938 349.53125 200.960938 349.53125 200.960938 C 349.53125 200.960938 349.53125 200.960938 349.605469 201.035156 C 348.996094 201.113281 349.988281 201.570312 349.300781 201.570312 C 348.84375 201.265625 349.683594 202.410156 349.378906 202.488281 L 348.535156 201.875 C 347.773438 201.722656 348.308594 202.5625 347.773438 203.097656 C 347.238281 203.019531 346.546875 202.488281 346.242188 201.722656 C 346.546875 202.640625 346.546875 202.257812 346.472656 202.945312 C 346.164062 202.714844 346.164062 202.5625 346.011719 202.257812 C 345.402344 202.179688 346.011719 202.714844 345.785156 202.867188 C 346.164062 203.480469 346.855469 204.472656 346.777344 204.546875 L 347.007812 204.625 C 347.007812 205.160156 346.855469 205.464844 346.394531 205.386719 L 346.164062 205.082031 L 346.011719 205.464844 L 345.707031 205.160156 L 345.402344 205.617188 L 345.554688 205.695312 C 345.476562 205.847656 345.246094 206.226562 344.941406 206.152344 L 344.789062 205.921875 C 343.71875 205.769531 344.023438 206.914062 343.488281 207.449219 L 343.183594 206.992188 C 342.648438 206.761719 343.640625 207.679688 343.257812 207.679688 L 342.800781 207.222656 C 343.183594 208.0625 342.417969 207.296875 342.035156 207.222656 L 342.648438 207.832031 L 342.265625 207.90625 C 341.804688 207.984375 341.347656 207.296875 341.117188 206.914062 L 341.347656 207.601562 L 340.8125 207.066406 C 341.269531 207.832031 340.582031 207.066406 340.582031 207.679688 C 340.351562 207.449219 340.351562 207.296875 340.125 207.296875 L 340.429688 208.441406 L 340.351562 207.832031 L 341.042969 208.671875 C 341.347656 209.511719 340.582031 208.902344 340.582031 209.28125 L 340.503906 208.902344 C 340.351562 209.359375 340.046875 209.054688 339.664062 209.054688 C 339.894531 209.128906 340.125 209.28125 340.125 209.511719 C 340.046875 209.664062 339.816406 209.28125 339.664062 209.28125 C 340.125 209.816406 340.199219 210.351562 339.742188 210.273438 C 339.664062 210.199219 339.589844 210.121094 339.589844 210.046875 C 339.589844 210.199219 339.742188 210.351562 339.511719 210.273438 L 339.050781 209.589844 L 339.433594 210.351562 C 339.207031 210.273438 339.433594 210.886719 339.050781 210.429688 L 338.976562 210.273438 L 337.980469 210.960938 L 337.523438 210.503906 C 338.058594 211.269531 336.835938 210.734375 337.597656 211.496094 C 336.988281 211.191406 337.21875 212.414062 336.453125 211.421875 C 335.839844 211.878906 336.300781 213.023438 335.226562 213.253906 C 334.234375 212.71875 333.773438 213.636719 333.316406 213.941406 C 332.78125 215.085938 332.476562 215.925781 331.863281 217.070312 C 330.257812 216.535156 330.945312 218.75 329.796875 218.675781 L 330.105469 219.210938 C 329.03125 218.902344 329.339844 220.277344 328.191406 220.203125 C 328.269531 220.507812 328.269531 220.660156 328.269531 220.660156 C 328.34375 220.660156 328.421875 220.660156 328.726562 220.964844 C 328.421875 220.964844 328.34375 221.5 327.808594 220.964844 L 327.808594 220.890625 C 327.273438 220.355469 327.65625 221.574219 326.96875 221.347656 L 327.65625 221.804688 L 327.273438 222.035156 L 327.199219 221.882812 C 327.351562 224.324219 324.902344 223.179688 325.054688 225.546875 C 324.519531 224.78125 325.210938 226.082031 324.445312 225.46875 C 323.296875 224.9375 324.136719 226.234375 324.136719 226.691406 C 324.136719 226.691406 324.214844 226.769531 324.292969 226.84375 L 323.832031 227.226562 C 323.144531 226.15625 324.292969 228.21875 323.753906 227.304688 C 322.074219 227.835938 321.460938 229.976562 320.007812 231.042969 L 320.3125 231.195312 C 320.007812 231.503906 319.929688 232.191406 319.320312 232.113281 C 318.707031 232.035156 319.472656 233.183594 319.394531 233.335938 C 319.550781 233.945312 318.554688 233.5625 318.707031 233.488281 C 318.554688 233.871094 319.167969 234.863281 318.476562 235.015625 C 317.5625 234.480469 318.324219 236.847656 317.40625 236.085938 L 317.484375 236.160156 C 316.414062 236.238281 317.101562 237.609375 316.03125 237.765625 C 316.03125 237.765625 315.953125 237.6875 315.953125 237.609375 L 317.789062 240.972656 L 321.15625 243.03125 L 324.445312 243.949219 C 324.445312 243.949219 324.828125 243.183594 325.210938 242.34375 C 325.589844 241.582031 326.050781 240.742188 326.050781 240.742188 L 328.726562 239.367188 C 328.726562 239.367188 328.957031 239.0625 329.339844 238.527344 C 329.722656 237.992188 330.257812 237.382812 330.714844 236.695312 C 331.25 236.007812 331.710938 235.398438 332.09375 234.863281 C 332.476562 234.402344 332.78125 234.023438 332.78125 234.023438 L 332.476562 233.105469 C 334.539062 233.183594 334.3125 230.664062 336.144531 230.433594 L 335.609375 229.898438 C 335.839844 229.59375 336.144531 229.898438 336.375 229.898438 C 338.824219 227.074219 340.8125 223.636719 343.949219 222.035156 C 344.484375 222.1875 345.019531 221.269531 345.554688 221.5 C 345.707031 220.125 346.546875 219.285156 347.464844 218.597656 L 347.464844 218.675781 L 347.773438 218.214844 C 347.847656 218.214844 347.925781 218.292969 347.925781 218.367188 C 347.925781 217.453125 349.070312 217.375 349.761719 217.148438 L 349.761719 217.222656 C 352.972656 214.628906 355.039062 211.039062 358.9375 209.359375 C 360.085938 209.28125 360.851562 208.519531 361.539062 207.753906 C 362.304688 206.992188 363.070312 206.226562 364.292969 206 C 364.523438 205.847656 367.808594 202.867188 367.964844 202.335938 Z M 367.964844 202.335938 " fill-opacity="1" fill-rule="nonzero"/><path fill="#f5c000" d="M 372.78125 197.90625 C 372.933594 198.132812 372.933594 198.058594 372.78125 197.90625 Z M 372.78125 197.90625 " fill-opacity="1" fill-rule="nonzero"/><path fill="#f5c000" d="M 360.164062 195.921875 L 359.855469 195.613281 Z M 360.164062 195.921875 " fill-opacity="1" fill-rule="nonzero"/><path fill="#f5c000" d="M 365.058594 192.253906 C 364.75 192.332031 364.828125 192.40625 364.902344 192.484375 C 364.980469 192.40625 365.058594 192.332031 365.058594 192.253906 Z M 365.058594 192.253906 " fill-opacity="1" fill-rule="nonzero"/><path fill="#f5c000" d="M 374.3125 196.226562 C 374.464844 196.148438 374.3125 196.074219 374.082031 195.921875 C 374.003906 195.996094 373.929688 196.074219 373.929688 196.074219 C 374.003906 196.074219 374.234375 196.148438 374.3125 196.226562 Z M 374.3125 196.226562 " fill-opacity="1" fill-rule="nonzero"/><path fill="#f5c000" d="M 371.480469 192.867188 L 371.40625 192.636719 C 371.40625 192.714844 371.40625 192.789062 371.480469 192.867188 Z M 371.480469 192.867188 " fill-opacity="1" fill-rule="nonzero"/></svg>