<svg xmlns="http://www.w3.org/2000/svg" xmlns:xlink="http://www.w3.org/1999/xlink" width="500" zoomAndPan="magnify" viewBox="0 0 375 374.999991" height="500" preserveAspectRatio="xMidYMid meet" version="1.0"><path fill="#ffffff" d="M 250.285156 66.769531 C 242.222656 43.101562 211.878906 52.828125 193.847656 49.628906 C 178.929688 46.984375 165.503906 35.960938 150.617188 32.109375 C 122.480469 24.828125 81.90625 38.621094 66.019531 63.164062 C 49.835938 88.171875 48.195312 123.851562 54.839844 152.078125 C 57.28125 162.457031 62.949219 171.730469 65.484375 182.117188 C 70.167969 201.320312 72.054688 226.042969 71.039062 245.800781 C 70.09375 264.125 47.886719 293.453125 58.738281 310.683594 C 65.105469 320.792969 79.035156 326.007812 89.378906 330.84375 C 117.429688 343.96875 147.507812 348.320312 178.035156 348.308594 C 189.390625 348.304688 210.761719 344.6875 219.886719 337.125 C 224.644531 333.179688 223.527344 324.609375 224.210938 319.09375 C 226.027344 304.503906 226.109375 286.359375 233.582031 273.433594 C 252.199219 241.230469 275.765625 211.8125 296.46875 180.914062 C 305.882812 166.867188 318.917969 150.863281 322.894531 134.054688 C 327.035156 116.550781 325.417969 88.917969 312.273438 75.585938 C 296.8125 59.910156 272.460938 60.488281 253.074219 66.234375 M 181.839844 52.347656 C 158.433594 59.632812 142.25 95.308594 142.214844 118.433594 C 141.933594 125.859375 139.328125 139.425781 147.015625 143.667969 C 143.65625 117.0625 148.917969 77.265625 173.640625 60.933594 C 190.675781 49.683594 229.390625 47.820312 243.8125 64.488281 C 252.761719 74.832031 252.828125 91.113281 251.265625 104.015625 C 248.714844 125.058594 230.90625 138.890625 222.667969 156.882812 C 237.691406 152.652344 254.933594 119.144531 255.722656 104.015625 C 256.519531 88.808594 249.285156 73.003906 268.296875 67.882812 C 306.316406 57.640625 319.765625 92.570312 318.289062 122.71875 C 316.652344 133.921875 310.390625 150.746094 304.257812 160.488281 C 290.515625 182.3125 277.019531 205.992188 259.949219 225.371094 C 254.507812 231.554688 238.292969 258.425781 228.214844 246.261719 C 224.765625 242.101562 229.238281 236.269531 231.445312 232.582031 C 239.058594 219.867188 247.710938 208.261719 255.089844 195.335938 C 240.335938 202.59375 237.070312 226.914062 221.464844 236.175781 C 213.292969 241.027344 197.042969 233.832031 195.429688 224.152344 C 193.78125 214.261719 199.847656 201.175781 204.65625 192.929688 C 193.875 200.894531 196.597656 216.042969 187.375 223.277344 C 182.542969 227.070312 173.726562 224.234375 168.503906 222.933594 C 162.886719 221.535156 154.210938 220.890625 150.140625 216.347656 C 147.117188 212.96875 148.222656 206.710938 148.21875 202.542969 C 148.203125 193.179688 147 183.929688 144.613281 174.90625 C 144.613281 174.90625 147.308594 205.242188 141.183594 212.976562 C 135.378906 220.300781 111.644531 218.015625 109.824219 209.730469 L 107.390625 182.117188 C 104.230469 190.792969 106.976562 200.132812 103.824219 208.527344 C 101.921875 213.59375 91.089844 220.707031 87.699219 213.160156 C 84.636719 206.34375 86.363281 194.429688 85.648438 186.921875 C 84.65625 176.449219 81.21875 164.726562 78.570312 154.480469 C 78.570312 154.480469 81.988281 186.265625 82.167969 201.34375 C 82.246094 207.898438 80.277344 222.527344 75.769531 215.769531 C 70.777344 202.800781 72.335938 195.023438 69.085938 181.703125 C 66.648438 171.707031 61.28125 159.59375 58.730469 149.675781 C 52.046875 123.664062 54.734375 92.75 68.167969 69.171875 C 85.476562 38.796875 132.128906 26.828125 162.625 41.226562 C 168.96875 44.222656 177.867188 46.28125 181.839844 52.347656 M 106.1875 100.410156 L 107.125 102.003906 C 108.542969 84.179688 119.878906 60.457031 138.609375 55.953125 C 120.132812 48.265625 100.039062 85.535156 106.1875 100.410156 M 281.503906 87.191406 C 285.484375 96.894531 289.367188 105.8125 287.34375 116.621094 C 286.578125 125.238281 281.03125 135.164062 279.105469 143.664062 C 291.703125 133.179688 297.628906 97.972656 281.503906 87.191406 M 220.265625 325.101562 C 175.382812 301.46875 110.546875 289.035156 60.558594 302.269531 C 61.414062 283.523438 73.375 266.984375 74.855469 248.199219 C 75.355469 241.84375 73.242188 230.128906 78.082031 225.011719 C 85.503906 217.175781 103.613281 219.25 113.394531 219.367188 C 145.613281 219.75 181.074219 225.765625 209.457031 241.683594 C 216.679688 245.734375 228.117188 249.414062 232.730469 256.664062 C 236.835938 263.117188 228.789062 270.980469 226.699219 277.039062 C 221.886719 290.988281 220.273438 310.328125 220.265625 325.101562 M 209.898438 326.582031 C 215.714844 330.269531 219.378906 333.238281 214.3125 336.3125 C 184.660156 350.386719 149.578125 343.296875 119.398438 332.523438 C 111.625 329.75 89.230469 324.175781 90.035156 313.136719 C 90.882812 301.484375 110.175781 303.34375 117.546875 303.34375 C 149.644531 304.671875 180.621094 310.710938 209.898438 326.582031 Z M 209.898438 326.582031 " fill-opacity="1" fill-rule="nonzero"/></svg>