<svg xmlns="http://www.w3.org/2000/svg" xmlns:xlink="http://www.w3.org/1999/xlink" width="500" zoomAndPan="magnify" viewBox="0 0 375 374.999991" height="500" preserveAspectRatio="xMidYMid meet" version="1.0"><defs><clipPath id="5045dacfcd"><path d="M 0 13 L 367 13 L 367 366.796875 L 0 366.796875 Z M 0 13 " clip-rule="nonzero"/></clipPath></defs><path fill="#ffffff" d="M 282.761719 39.691406 C 285.703125 38.726562 288.839844 38.183594 292.089844 38.074219 C 294.546875 37.992188 296.46875 35.929688 296.382812 33.472656 C 296.300781 31.015625 294.21875 29.109375 291.789062 29.179688 C 287.699219 29.316406 283.730469 30.007812 279.996094 31.230469 C 264.527344 36.296875 254.609375 51.984375 256.417969 68.53125 C 256.6875 71 257.082031 73.390625 257.582031 75.640625 C 258.773438 80.988281 257.976562 86.511719 255.335938 91.1875 C 250.933594 98.984375 247.304688 111.871094 255.027344 129 C 257.3125 134.058594 258.507812 139.753906 258.492188 145.46875 C 258.484375 147.929688 260.472656 149.925781 262.929688 149.933594 C 262.933594 149.933594 262.941406 149.933594 262.941406 149.933594 C 265.394531 149.933594 267.386719 147.949219 267.390625 145.496094 C 267.410156 138.519531 265.941406 131.546875 263.140625 125.335938 C 256.953125 111.609375 259.695312 101.570312 263.082031 95.5625 C 266.808594 88.964844 267.941406 81.203125 266.269531 73.703125 C 265.839844 71.773438 265.5 69.707031 265.265625 67.566406 C 263.914062 55.175781 271.269531 43.453125 282.761719 39.691406 " fill-opacity="1" fill-rule="nonzero"/><path fill="#ffffff" d="M 215.851562 165.453125 C 216.507812 165.792969 217.210938 165.957031 217.902344 165.957031 C 219.511719 165.957031 221.0625 165.082031 221.851562 163.558594 C 227.855469 151.992188 231.003906 140.261719 231.191406 128.691406 C 231.425781 114.535156 226.417969 100.480469 217.09375 89.109375 C 213.484375 84.703125 209.890625 80.699219 206.425781 77.210938 C 200.554688 71.296875 196.203125 64.359375 193.492188 56.585938 C 186.738281 37.246094 169.210938 5.277344 127.492188 8.558594 C 117.59375 9.332031 108.441406 13.394531 101.734375 19.976562 C 96.746094 24.875 91.550781 32.574219 90.449219 43.851562 C 78.351562 46.050781 70.191406 53.222656 67.832031 63.953125 C 66.828125 68.519531 67.046875 73.511719 68.453125 78.382812 C 69.820312 83.085938 72.644531 89.773438 78.375 94.925781 C 81.863281 98.054688 83.789062 102.34375 83.652344 106.6875 C 83.445312 113.3125 84.417969 119.652344 86.542969 125.515625 C 87.199219 127.324219 88.90625 128.453125 90.726562 128.453125 C 91.230469 128.453125 91.742188 128.367188 92.246094 128.183594 C 94.554688 127.347656 95.75 124.792969 94.914062 122.480469 C 93.175781 117.683594 92.375 112.460938 92.546875 106.964844 C 92.765625 99.992188 89.769531 93.1875 84.320312 88.300781 C 80.15625 84.558594 78.039062 79.496094 77.007812 75.910156 C 76.007812 72.460938 75.839844 68.988281 76.527344 65.867188 C 78.292969 57.820312 84.386719 54.34375 90.449219 52.917969 C 90.660156 55.199219 91.023438 57.59375 91.566406 60.113281 C 91.597656 60.253906 91.636719 60.402344 91.683594 60.542969 C 91.925781 61.292969 97.839844 79.042969 113.980469 90.425781 C 119.757812 94.5 123.210938 101.039062 123.226562 107.917969 C 123.234375 113.820312 123.867188 119.5625 125.109375 124.992188 C 125.660156 127.386719 128.046875 128.878906 130.441406 128.335938 C 132.839844 127.789062 134.335938 125.402344 133.789062 123.003906 C 132.695312 118.226562 132.132812 113.144531 132.125 107.902344 C 132.105469 98.140625 127.242188 88.886719 119.105469 83.152344 C 106.253906 74.085938 100.839844 59.742188 100.210938 57.96875 C 97.410156 44.777344 100.019531 34.132812 107.96875 26.332031 C 113.1875 21.203125 120.371094 18.042969 128.1875 17.429688 C 163.945312 14.632812 179.183594 42.601562 185.09375 59.519531 C 188.246094 68.554688 193.300781 76.617188 200.113281 83.480469 C 203.378906 86.773438 206.777344 90.566406 210.214844 94.753906 C 218.203125 104.496094 222.492188 116.496094 222.296875 128.542969 C 222.125 138.722656 219.320312 149.125 213.957031 159.449219 C 212.824219 161.632812 213.675781 164.316406 215.851562 165.453125 " fill-opacity="1" fill-rule="nonzero"/><g clip-path="url(#5045dacfcd)"><path fill="#ffffff" d="M 356.226562 251.914062 C 356.226562 255.09375 353.632812 257.683594 350.445312 257.683594 L 14.945312 257.683594 C 11.757812 257.683594 9.167969 255.09375 9.167969 251.914062 L 9.167969 213.554688 C 9.167969 210.371094 11.757812 207.777344 14.945312 207.777344 L 350.445312 207.777344 C 353.632812 207.777344 356.226562 210.371094 356.226562 213.554688 Z M 345.519531 307.953125 L 350.445312 307.953125 C 353.632812 307.953125 356.226562 310.542969 356.226562 313.730469 L 356.226562 352.089844 C 356.226562 355.273438 353.632812 357.863281 350.445312 357.863281 L 14.945312 357.863281 C 11.757812 357.863281 9.167969 355.273438 9.167969 352.089844 L 9.167969 313.730469 C 9.167969 310.542969 11.757812 307.953125 14.945312 307.953125 Z M 266.324219 176.824219 C 269.582031 169.5 273.5 163.65625 278.027344 159.308594 C 278.152344 159.203125 278.273438 159.09375 278.386719 158.972656 C 283.867188 153.839844 290.226562 150.847656 297.445312 150.074219 C 300.851562 149.707031 304.203125 150.054688 307.320312 151 C 307.386719 151.023438 307.4375 151.058594 307.507812 151.078125 C 307.542969 151.089844 307.578125 151.089844 307.613281 151.101562 C 308.285156 151.3125 308.945312 151.558594 309.597656 151.832031 C 309.679688 151.867188 309.757812 151.910156 309.847656 151.941406 C 315.636719 154.421875 320.371094 159.070312 322.730469 165.136719 C 327.839844 178.28125 319.59375 191.769531 313.976562 198.875 L 255.117188 198.875 C 260.949219 188.933594 266.074219 177.386719 266.324219 176.824219 Z M 303.835938 132.507812 C 304.871094 131.1875 305.867188 129.839844 306.835938 128.472656 C 306.796875 133.535156 306.203125 137.933594 305.460938 141.476562 C 303.035156 141.085938 300.546875 140.96875 298.027344 141.121094 C 299.859375 137.992188 301.796875 135.101562 303.835938 132.507812 Z M 59.652344 112.414062 C 59.300781 113.039062 58.46875 114.058594 56.777344 113.898438 C 53.730469 113.59375 50.605469 113.109375 47.492188 112.449219 C 40.457031 110.957031 32.941406 113.070312 27.382812 118.097656 C 24.902344 120.347656 21.96875 122.300781 18.664062 123.921875 C 16.730469 124.867188 15.226562 123.875 14.671875 123.410156 C 14.21875 123.03125 12.804688 121.628906 13.445312 119.429688 C 13.792969 118.242188 13.953125 117.511719 13.953125 117.511719 C 13.972656 117.425781 13.992188 117.320312 14.003906 117.234375 C 16.160156 103.492188 22.136719 97.464844 26.351562 94.859375 C 26.550781 94.765625 26.742188 94.652344 26.929688 94.519531 C 29.027344 93.324219 30.582031 93.007812 30.800781 92.96875 C 30.816406 92.964844 30.828125 92.960938 30.847656 92.960938 C 40.949219 91.195312 48.34375 95.75 52.777344 99.882812 C 54.484375 101.476562 56.066406 103.546875 57.757812 106.40625 C 58.230469 107.210938 58.777344 108.023438 59.382812 108.832031 C 60.59375 110.441406 59.894531 111.984375 59.652344 112.414062 Z M 128.769531 154.277344 C 123.480469 157.679688 120.152344 162.421875 118.085938 166.660156 C 116.148438 160.203125 118.179688 154.203125 118.296875 153.875 C 118.804688 152.464844 118.570312 150.886719 117.671875 149.6875 C 114.5 145.460938 108.082031 143.128906 102.128906 141.847656 C 114.753906 136.144531 121.855469 143.304688 122.757812 144.300781 C 123.910156 145.625 125.742188 146.144531 127.417969 145.632812 C 137.433594 142.558594 144.085938 145.890625 148.183594 149.867188 C 140.71875 149.285156 134.222656 150.761719 128.769531 154.277344 Z M 350.445312 198.875 L 324.910156 198.875 C 330.871094 189.644531 336.5 175.996094 331.023438 161.914062 C 328.460938 155.3125 323.859375 149.945312 318.132812 146.296875 C 341.027344 114.714844 338.023438 64.269531 337.878906 62.042969 C 337.71875 59.585938 335.59375 57.722656 333.148438 57.890625 C 330.699219 58.050781 328.84375 60.167969 329 62.625 C 329.035156 63.09375 331.507812 104.542969 315.515625 133.777344 C 315.792969 130.121094 315.835938 126.070312 315.484375 121.707031 C 315.277344 119.167969 314.863281 116.609375 314.289062 114.039062 C 314.261719 113.890625 314.242188 113.746094 314.195312 113.601562 C 313.019531 108.527344 311.144531 103.417969 308.558594 98.328125 C 305.800781 92.898438 303.753906 84.371094 309.679688 74.613281 C 314.316406 66.988281 315.597656 57.761719 313.199219 49.292969 C 310.007812 38.027344 312.355469 29.8125 320.183594 24.875 C 325.023438 21.824219 331.328125 21.621094 336.640625 24.347656 C 349.960938 31.1875 363.890625 45.925781 354.601562 77.300781 C 352.996094 82.734375 352.453125 88.347656 352.996094 94 C 353.785156 102.214844 352.402344 118.046875 334.304688 131.753906 C 331.78125 133.667969 329.367188 135.890625 327.144531 138.359375 C 325.496094 140.183594 325.644531 143 327.46875 144.640625 C 329.289062 146.289062 332.105469 146.144531 333.753906 144.320312 C 335.605469 142.269531 337.597656 140.425781 339.679688 138.851562 C 361.222656 122.53125 362.820312 103.214844 361.851562 93.148438 C 361.421875 88.640625 361.851562 84.160156 363.136719 79.832031 C 374.730469 40.640625 354.0625 23.285156 340.707031 16.425781 C 332.605469 12.273438 322.925781 12.621094 315.4375 17.34375 C 304.195312 24.433594 300.363281 36.644531 304.640625 51.722656 C 306.367188 57.8125 305.429688 64.476562 302.078125 69.996094 C 293.597656 83.949219 297.527344 96.265625 300.625 102.363281 C 302.660156 106.367188 304.183594 110.363281 305.210938 114.3125 C 302.78125 118.726562 299.980469 122.996094 296.832031 127.015625 C 293.109375 131.765625 289.691406 137.320312 286.65625 143.53125 C 285.464844 143.96875 284.257812 144.476562 283.035156 145.066406 C 291.074219 112.140625 287.019531 76.871094 286.820312 75.203125 C 286.53125 72.761719 284.332031 71.019531 281.871094 71.3125 C 279.433594 71.605469 277.691406 73.820312 277.984375 76.261719 C 278.035156 76.695312 283 119.746094 271.332031 153.445312 C 270.679688 154.09375 270.027344 154.769531 269.378906 155.488281 C 257.644531 153.832031 233.296875 154.617188 219.515625 185.027344 C 218.496094 187.265625 219.492188 189.90625 221.730469 190.917969 C 222.324219 191.1875 222.953125 191.316406 223.5625 191.316406 C 225.257812 191.316406 226.875 190.347656 227.617188 188.703125 C 236.878906 168.285156 251.042969 163.445312 263.136719 163.839844 C 261.398438 166.625 259.738281 169.730469 258.1875 173.210938 C 258.117188 173.371094 251.214844 188.925781 244.652344 198.875 L 212.710938 198.875 C 213.199219 196.371094 213.453125 193.820312 213.453125 191.238281 C 213.453125 179.503906 208.464844 169 200.453125 161.726562 C 201.484375 137.902344 195.75 116.175781 190.640625 101.960938 C 189.8125 99.648438 187.261719 98.445312 184.949219 99.28125 C 182.636719 100.109375 181.4375 102.660156 182.265625 104.972656 C 186.695312 117.285156 191.621094 135.527344 191.6875 155.695312 C 190.109375 154.898438 188.46875 154.214844 186.777344 153.628906 C 182.992188 99.421875 151.515625 61.320312 150.148438 59.695312 C 148.570312 57.8125 145.765625 57.570312 143.882812 59.148438 C 142.003906 60.722656 141.757812 63.53125 143.335938 65.414062 C 143.644531 65.785156 173.277344 101.730469 177.707031 151.652344 C 176.789062 151.5625 175.871094 151.492188 174.9375 151.460938 C 172.460938 151.410156 170.425781 153.3125 170.347656 155.769531 C 170.273438 158.222656 172.199219 160.28125 174.65625 160.359375 C 181.472656 160.570312 187.6875 162.945312 192.664062 166.808594 C 192.921875 167.082031 193.222656 167.316406 193.542969 167.519531 C 200.296875 173.179688 204.554688 181.6875 204.554688 191.238281 C 204.554688 193.839844 204.226562 196.394531 203.601562 198.875 L 170.449219 198.875 C 175.34375 188.425781 178.867188 171.363281 162.136719 155.503906 C 162.085938 155.199219 162.015625 154.890625 161.898438 154.589844 C 158.550781 146.027344 147.132812 131.734375 127.261719 136.453125 C 121.914062 132.234375 107.171875 124.167969 86.703125 141.339844 C 85.296875 142.515625 84.757812 144.445312 85.351562 146.191406 C 85.953125 147.929688 87.554688 149.125 89.398438 149.191406 C 95.472656 149.421875 105.03125 151.003906 109.128906 153.746094 C 107.964844 159.109375 106.863281 170.824219 116.085938 180.269531 C 116.9375 181.140625 118.089844 181.613281 119.265625 181.613281 C 119.730469 181.613281 120.203125 181.539062 120.652344 181.390625 C 122.265625 180.859375 123.4375 179.460938 123.671875 177.78125 C 123.691406 177.675781 125.394531 167.035156 133.585938 161.757812 C 138.640625 158.507812 145.304688 157.8125 153.414062 159.675781 C 170.1875 173.457031 166.765625 188.351562 160.386719 198.875 L 115.957031 198.875 C 115.824219 198.765625 115.703125 198.648438 115.5625 198.550781 C 109.503906 194.484375 99.457031 185.402344 99.386719 185.339844 C 96.355469 182.535156 93.140625 179.335938 89.886719 175.75 C 92.304688 170.199219 95.847656 165.476562 100.429688 161.707031 C 102.328125 160.140625 102.597656 157.335938 101.035156 155.4375 C 99.476562 153.542969 96.667969 153.269531 94.773438 154.835938 C 90.179688 158.617188 86.457031 163.160156 83.613281 168.378906 C 74.074219 156.367188 65.011719 141.027344 60.078125 122.449219 C 63.144531 121.671875 65.777344 119.679688 67.40625 116.777344 C 69.804688 112.515625 69.453125 107.417969 66.496094 103.480469 C 66.085938 102.941406 65.726562 102.40625 65.421875 101.882812 C 63.285156 98.265625 61.195312 95.558594 58.839844 93.371094 C 50.492188 85.589844 40.003906 82.332031 29.328125 84.191406 C 28.960938 84.25 27.734375 84.492188 26.015625 85.15625 C 22.753906 79.457031 18.789062 69.195312 22.027344 56.273438 C 22.328125 55.082031 23.160156 54.480469 23.632812 54.222656 C 24.492188 53.757812 25.46875 53.675781 26.390625 53.992188 C 28.074219 54.570312 29.007812 56.324219 28.558594 58.082031 C 27.109375 63.71875 26.453125 69.351562 26.609375 74.824219 C 26.679688 77.277344 28.683594 79.210938 31.1875 79.144531 C 33.640625 79.078125 35.574219 77.027344 35.503906 74.570312 C 35.375 69.996094 35.953125 65.0625 37.175781 60.296875 C 38.769531 54.105469 35.296875 47.632812 29.273438 45.570312 C 26.019531 44.457031 22.414062 44.757812 19.390625 46.398438 C 16.402344 48.019531 14.21875 50.828125 13.394531 54.105469 C 9.402344 70.035156 14.335938 82.6875 18.359375 89.6875 C 13.078125 94.078125 7.441406 101.886719 5.242188 115.6875 C 5.1875 115.890625 5.082031 116.332031 4.902344 116.933594 C 3.476562 121.832031 5.023438 126.921875 8.9375 130.222656 C 11.292969 132.199219 14.140625 133.21875 17.03125 133.21875 C 18.902344 133.21875 20.792969 132.789062 22.574219 131.917969 C 26.628906 129.933594 30.253906 127.503906 33.351562 124.703125 C 36.800781 121.585938 41.394531 120.253906 45.652344 121.160156 C 47.367188 121.519531 49.089844 121.835938 50.804688 122.105469 C 58.640625 154.457031 78.136719 177.828125 93.382812 191.910156 C 93.636719 192.132812 97.199219 195.355469 101.429688 198.875 L 34.355469 198.875 C 23.777344 179.503906 22.777344 158.78125 23.109375 142.847656 C 23.160156 140.390625 21.210938 138.359375 18.75 138.304688 C 16.308594 138.242188 14.261719 140.203125 14.210938 142.664062 C 13.910156 157.335938 14.703125 178.640625 24.355469 198.875 L 14.945312 198.875 C 6.847656 198.875 0.269531 205.460938 0.269531 213.554688 L 0.269531 251.914062 C 0.269531 260 6.847656 266.585938 14.945312 266.585938 L 15.425781 266.585938 L 15.425781 299.054688 L 14.945312 299.054688 C 6.847656 299.054688 0.269531 305.636719 0.269531 313.730469 L 0.269531 352.089844 C 0.269531 360.179688 6.847656 366.765625 14.945312 366.765625 L 350.445312 366.765625 C 358.542969 366.765625 365.125 360.179688 365.125 352.089844 L 365.125 313.730469 C 365.125 305.636719 358.542969 299.054688 350.445312 299.054688 L 24.324219 299.054688 L 24.324219 266.585938 L 341.070312 266.585938 L 341.070312 286.160156 C 341.070312 288.617188 343.058594 290.613281 345.519531 290.613281 C 347.976562 290.613281 349.96875 288.617188 349.96875 286.160156 L 349.96875 266.585938 L 350.445312 266.585938 C 358.542969 266.585938 365.125 260 365.125 251.914062 L 365.125 213.554688 C 365.125 205.460938 358.542969 198.875 350.445312 198.875 " fill-opacity="1" fill-rule="nonzero"/></g><path fill="#ffffff" d="M 47.085938 231.027344 C 46.976562 230.765625 46.84375 230.5 46.671875 230.265625 C 46.519531 230.019531 46.328125 229.792969 46.117188 229.585938 C 45.917969 229.386719 45.695312 229.195312 45.453125 229.03125 C 45.207031 228.875 44.953125 228.738281 44.683594 228.628906 C 44.402344 228.503906 44.125 228.425781 43.847656 228.371094 C 42.40625 228.074219 40.859375 228.550781 39.832031 229.585938 C 39.625 229.792969 39.441406 230.019531 39.277344 230.265625 C 39.121094 230.5 38.976562 230.765625 38.867188 231.027344 C 38.753906 231.296875 38.664062 231.578125 38.609375 231.863281 C 38.554688 232.140625 38.519531 232.445312 38.519531 232.734375 C 38.519531 233.902344 39 235.046875 39.832031 235.878906 C 40.660156 236.707031 41.800781 237.183594 42.96875 237.183594 C 43.269531 237.183594 43.5625 237.148438 43.847656 237.097656 C 44.125 237.039062 44.402344 236.949219 44.683594 236.839844 C 44.953125 236.726562 45.207031 236.59375 45.4375 236.425781 C 45.6875 236.269531 45.917969 236.082031 46.117188 235.878906 C 46.949219 235.046875 47.417969 233.902344 47.417969 232.734375 C 47.417969 232.445312 47.398438 232.140625 47.339844 231.863281 C 47.285156 231.578125 47.199219 231.296875 47.085938 231.027344 " fill-opacity="1" fill-rule="nonzero"/><path fill="#ffffff" d="M 42.96875 337.355469 C 43.269531 337.355469 43.5625 337.335938 43.847656 337.265625 C 44.125 337.214844 44.402344 337.128906 44.683594 337.023438 C 44.953125 336.910156 45.207031 336.765625 45.4375 336.609375 C 45.6875 336.445312 45.917969 336.265625 46.117188 336.054688 C 46.949219 335.230469 47.417969 334.085938 47.417969 332.914062 C 47.417969 331.738281 46.949219 330.589844 46.117188 329.769531 C 45.917969 329.554688 45.695312 329.367188 45.453125 329.210938 C 45.207031 329.042969 44.953125 328.910156 44.683594 328.800781 C 44.402344 328.691406 44.125 328.597656 43.847656 328.542969 C 43.269531 328.433594 42.683594 328.433594 42.101562 328.542969 C 41.824219 328.597656 41.546875 328.691406 41.265625 328.800781 C 41.003906 328.910156 40.746094 329.042969 40.503906 329.210938 C 40.269531 329.367188 40.03125 329.554688 39.832031 329.769531 C 39 330.589844 38.519531 331.738281 38.519531 332.914062 C 38.519531 334.085938 39 335.230469 39.832031 336.054688 C 40.660156 336.886719 41.800781 337.355469 42.96875 337.355469 " fill-opacity="1" fill-rule="nonzero"/><path fill="#ffffff" d="M 323.277344 229.03125 C 323.027344 228.875 322.773438 228.738281 322.507812 228.628906 C 322.238281 228.515625 321.953125 228.425781 321.671875 228.371094 C 320.226562 228.074219 318.691406 228.550781 317.660156 229.585938 C 316.824219 230.40625 316.355469 231.5625 316.355469 232.734375 C 316.355469 233.902344 316.824219 235.046875 317.660156 235.878906 C 318.480469 236.707031 319.636719 237.183594 320.804688 237.183594 C 321.09375 237.183594 321.382812 237.148438 321.671875 237.097656 C 321.953125 237.039062 322.238281 236.949219 322.507812 236.839844 C 322.773438 236.726562 323.027344 236.59375 323.277344 236.4375 C 323.519531 236.269531 323.742188 236.082031 323.953125 235.878906 C 324.777344 235.046875 325.253906 233.902344 325.253906 232.734375 C 325.253906 231.5625 324.777344 230.40625 323.953125 229.585938 C 323.742188 229.386719 323.519531 229.195312 323.277344 229.03125 " fill-opacity="1" fill-rule="nonzero"/><path fill="#ffffff" d="M 320.804688 337.355469 C 321.09375 337.355469 321.382812 337.335938 321.671875 337.265625 C 321.953125 337.214844 322.238281 337.128906 322.507812 337.023438 C 322.773438 336.910156 323.027344 336.765625 323.277344 336.609375 C 323.519531 336.445312 323.742188 336.265625 323.953125 336.054688 C 324.777344 335.230469 325.253906 334.085938 325.253906 332.914062 C 325.253906 331.738281 324.777344 330.589844 323.953125 329.769531 C 323.742188 329.554688 323.519531 329.367188 323.277344 329.210938 C 323.027344 329.042969 322.773438 328.910156 322.507812 328.800781 C 322.238281 328.691406 321.953125 328.597656 321.671875 328.542969 C 320.226562 328.253906 318.691406 328.734375 317.660156 329.769531 C 316.824219 330.589844 316.355469 331.738281 316.355469 332.914062 C 316.355469 334.085938 316.824219 335.230469 317.660156 336.054688 C 318.480469 336.886719 319.636719 337.355469 320.804688 337.355469 " fill-opacity="1" fill-rule="nonzero"/><path fill="#ffffff" d="M 176.453125 81.363281 C 174.304688 82.546875 173.515625 85.25 174.695312 87.40625 C 174.699219 87.414062 175.210938 88.355469 176.046875 90.066406 C 176.8125 91.648438 178.398438 92.570312 180.050781 92.570312 C 180.703125 92.570312 181.367188 92.425781 181.992188 92.117188 C 184.199219 91.042969 185.121094 88.378906 184.050781 86.171875 C 183.105469 84.238281 182.519531 83.164062 182.492188 83.121094 C 181.3125 80.96875 178.613281 80.183594 176.453125 81.363281 " fill-opacity="1" fill-rule="nonzero"/><path fill="#ffffff" d="M 300.109375 166.253906 L 294.257812 162.675781 C 292.15625 161.398438 289.417969 162.058594 288.140625 164.152344 C 286.859375 166.253906 287.519531 168.992188 289.617188 170.273438 L 295.46875 173.847656 C 296.191406 174.292969 296.992188 174.5 297.785156 174.5 C 299.28125 174.5 300.746094 173.746094 301.585938 172.371094 C 302.867188 170.277344 302.203125 167.539062 300.109375 166.253906 " fill-opacity="1" fill-rule="nonzero"/><path fill="#ffffff" d="M 288.457031 176.441406 L 285.113281 174.449219 C 283 173.191406 280.273438 173.882812 279.011719 175.992188 C 277.757812 178.105469 278.449219 180.839844 280.558594 182.09375 L 283.902344 184.089844 C 284.617188 184.511719 285.398438 184.714844 286.171875 184.714844 C 287.691406 184.714844 289.171875 183.941406 290 182.542969 C 291.261719 180.429688 290.566406 177.699219 288.457031 176.441406 " fill-opacity="1" fill-rule="nonzero"/><path fill="#ffffff" d="M 34.730469 155.847656 C 32.289062 156.113281 30.527344 158.3125 30.789062 160.753906 C 32.125 172.992188 35.757812 182.925781 41.59375 190.269531 C 42.476562 191.375 43.769531 191.949219 45.082031 191.949219 C 46.050781 191.949219 47.027344 191.632812 47.84375 190.984375 C 49.769531 189.453125 50.085938 186.652344 48.5625 184.726562 C 43.789062 178.722656 40.785156 170.328125 39.636719 159.789062 C 39.367188 157.347656 37.175781 155.585938 34.730469 155.847656 " fill-opacity="1" fill-rule="nonzero"/><path fill="#ffffff" d="M 35.835938 136.265625 C 33.417969 135.9375 31.160156 137.640625 30.824219 140.074219 C 30.824219 140.074219 30.75 140.617188 30.65625 141.609375 C 30.414062 144.054688 32.203125 146.234375 34.644531 146.472656 C 34.792969 146.488281 34.941406 146.492188 35.089844 146.492188 C 37.347656 146.492188 39.285156 144.777344 39.507812 142.476562 C 39.582031 141.738281 39.636719 141.3125 39.644531 141.269531 C 39.972656 138.839844 38.269531 136.601562 35.835938 136.265625 " fill-opacity="1" fill-rule="nonzero"/><path stroke-linecap="butt" transform="matrix(0.75, 0, 0, 0.75, 127.499996, 185.999988)" fill="none" stroke-linejoin="miter" d="M 0.00000516333 2.000016 L 160.000016 2.000016 " stroke="#000000" stroke-width="4" stroke-opacity="1" stroke-miterlimit="4"/></svg>