<svg xmlns="http://www.w3.org/2000/svg" xmlns:xlink="http://www.w3.org/1999/xlink" width="500" zoomAndPan="magnify" viewBox="0 0 375 374.999991" height="500" preserveAspectRatio="xMidYMid meet" version="1.0"><defs><clipPath id="b3314af911"><path d="M 1 1 L 374 1 L 374 374.152344 L 1 374.152344 Z M 1 1 " clip-rule="nonzero"/></clipPath><clipPath id="5980d7c695"><path d="M 0 0.652344 L 375 0.652344 L 375 374.152344 L 0 374.152344 Z M 0 0.652344 " clip-rule="nonzero"/></clipPath></defs><g clip-path="url(#b3314af911)"><path fill="#ffffff" d="M 272.199219 1.964844 L 103.238281 1.964844 C 47.285156 1.964844 1.699219 47.546875 1.699219 103.503906 L 1.699219 272.464844 C 1.699219 328.421875 47.285156 374.003906 103.238281 374.003906 L 272.199219 374.003906 C 328.15625 374.003906 373.742188 328.421875 373.742188 272.464844 L 373.742188 103.777344 C 373.738281 47.546875 328.15625 1.964844 272.199219 1.964844 Z M 341.804688 272.738281 C 341.804688 311.226562 310.6875 342.34375 272.199219 342.34375 L 103.238281 342.34375 C 64.753906 342.34375 33.363281 311.226562 33.363281 272.738281 L 33.363281 103.777344 C 33.363281 65.289062 64.753906 33.902344 103.238281 33.902344 L 272.199219 33.902344 C 310.6875 33.902344 341.804688 65.015625 341.804688 103.777344 Z M 341.804688 272.738281 " fill-opacity="1" fill-rule="nonzero"/></g><path fill="#ffffff" d="M 312.050781 86.308594 C 312.050781 98.863281 301.953125 109.238281 289.125 109.238281 C 276.566406 109.238281 266.195312 99.136719 266.195312 86.308594 C 266.195312 73.753906 276.292969 63.378906 289.125 63.378906 C 301.953125 63.652344 312.050781 73.753906 312.050781 86.308594 Z M 312.050781 86.308594 " fill-opacity="1" fill-rule="nonzero"/><path fill="#ffffff" d="M 187.582031 93.40625 C 135.449219 93.40625 92.867188 135.988281 92.867188 188.121094 C 92.867188 240.257812 135.449219 282.835938 187.582031 282.835938 C 239.71875 282.835938 282.300781 240.257812 282.300781 188.121094 C 282.300781 135.988281 239.992188 93.40625 187.582031 93.40625 Z M 187.582031 250.902344 C 152.917969 250.902344 124.804688 222.785156 124.804688 188.121094 C 124.804688 153.457031 152.917969 125.339844 187.582031 125.339844 C 222.25 125.339844 250.363281 153.457031 250.363281 188.121094 C 250.363281 222.785156 222.25 250.902344 187.582031 250.902344 Z M 187.582031 250.902344 " fill-opacity="1" fill-rule="nonzero"/><g clip-path="url(#5980d7c695)"><path fill="#ffffff" d="M 187.582031 512.121094 C 9.070312 512.121094 -136.417969 366.90625 -136.417969 188.121094 C -136.417969 9.605469 9.070312 -135.878906 187.582031 -135.878906 C 366.371094 -135.878906 511.582031 9.605469 511.582031 188.121094 C 511.582031 366.90625 366.371094 512.121094 187.582031 512.121094 Z M 187.582031 -118.136719 C 18.625 -118.136719 -118.675781 19.160156 -118.675781 188.121094 C -118.675781 357.082031 18.625 494.378906 187.582031 494.378906 C 356.542969 494.378906 493.839844 357.082031 493.839844 188.121094 C 493.839844 19.160156 356.542969 -118.136719 187.582031 -118.136719 Z M 187.582031 -118.136719 " fill-opacity="1" fill-rule="nonzero"/></g></svg>