<svg xmlns="http://www.w3.org/2000/svg" xmlns:xlink="http://www.w3.org/1999/xlink" width="500" zoomAndPan="magnify" viewBox="0 0 375 374.999991" height="500" preserveAspectRatio="xMidYMid meet" version="1.0"><defs><clipPath id="4589a2f7ce"><path d="M 0 50.625 L 375 50.625 L 375 324.375 L 0 324.375 Z M 0 50.625 " clip-rule="nonzero"/></clipPath></defs><g clip-path="url(#4589a2f7ce)"><path fill="#ffffff" d="M 374.652344 176.308594 C 374.132812 175.339844 373.125 174.734375 372.027344 174.734375 L 345.316406 174.734375 C 344.257812 121.625 280.796875 78.152344 200.5 73.921875 L 200.5 63.46875 C 200.5 56.429688 194.734375 50.703125 187.648438 50.703125 C 180.5625 50.703125 174.796875 56.429688 174.796875 63.46875 L 174.796875 73.921875 C 94.503906 78.152344 31.039062 121.625 29.980469 174.734375 L 3.269531 174.734375 C 2.175781 174.734375 1.164062 175.339844 0.644531 176.308594 C 0.128906 177.277344 0.191406 178.453125 0.804688 179.363281 L 13.972656 198.949219 C 14.53125 199.769531 15.453125 200.261719 16.441406 200.261719 L 69.824219 200.261719 C 67.046875 201.074219 64.578125 202.734375 62.910156 205.128906 C 60.714844 208.277344 60.03125 212.191406 61.035156 215.867188 C 62.046875 219.566406 64.632812 222.609375 68.140625 224.210938 L 100.945312 239.222656 C 120.316406 246.929688 140.371094 253.554688 160.546875 258.917969 C 182.085938 264.636719 204.214844 269.035156 226.332031 271.988281 C 233.167969 275.105469 239.410156 279.257812 244.890625 284.332031 C 249.277344 288.394531 253.082031 293.023438 256.285156 298.050781 L 251.40625 302.886719 C 250.84375 303.445312 250.523438 304.203125 250.523438 305 C 250.523438 305.792969 250.839844 306.550781 251.40625 307.109375 L 267.867188 323.429688 C 268.425781 323.984375 269.175781 324.292969 269.960938 324.292969 C 269.976562 324.292969 269.988281 324.292969 270.003906 324.292969 C 270.804688 324.28125 271.558594 323.953125 272.113281 323.371094 L 331.375 261.355469 C 332.496094 260.183594 332.472656 258.332031 331.320312 257.191406 L 314.855469 240.871094 C 313.695312 239.71875 311.828125 239.71875 310.671875 240.871094 L 306.246094 245.253906 L 272.90625 210.007812 C 269.164062 206.046875 264.792969 202.792969 260.039062 200.265625 L 358.855469 200.265625 C 359.84375 200.265625 360.769531 199.773438 361.324219 198.953125 L 374.496094 179.367188 C 375.105469 178.453125 375.167969 177.277344 374.652344 176.308594 Z M 180.746094 63.46875 C 180.746094 59.707031 183.84375 56.652344 187.648438 56.652344 C 191.457031 56.652344 194.550781 59.707031 194.550781 63.46875 L 194.550781 73.664062 C 192.261719 73.597656 189.964844 73.550781 187.648438 73.550781 C 185.332031 73.550781 183.035156 73.601562 180.746094 73.664062 Z M 187.648438 79.5 C 270.628906 79.5 338.230469 122.097656 339.367188 174.734375 L 35.929688 174.734375 C 37.066406 122.097656 104.667969 79.5 187.648438 79.5 Z M 127.28125 214.511719 L 118.914062 213.917969 L 78.183594 200.425781 C 77.972656 200.355469 77.753906 200.328125 77.535156 200.265625 L 127.757812 200.265625 C 126.429688 202.183594 125.578125 204.445312 125.414062 206.886719 C 125.234375 209.625 125.9375 212.261719 127.28125 214.511719 Z M 312.761719 247.171875 L 325.058594 259.363281 L 269.902344 317.078125 L 257.722656 305 L 262.175781 300.585938 C 262.1875 300.574219 262.191406 300.554688 262.203125 300.542969 C 262.214844 300.53125 262.234375 300.527344 262.246094 300.511719 L 308.332031 251.558594 Z M 268.585938 214.09375 L 302.089844 249.519531 L 260.558594 293.632812 C 257.246094 288.640625 253.347656 284.054688 248.9375 279.972656 C 242.871094 274.355469 235.957031 269.785156 228.378906 266.386719 C 228.117188 266.269531 227.835938 266.191406 227.554688 266.152344 C 205.542969 263.230469 183.507812 258.863281 162.074219 253.167969 C 142.125 247.867188 122.296875 241.316406 103.28125 233.757812 L 70.613281 218.808594 C 68.714844 217.941406 67.320312 216.296875 66.773438 214.304688 C 66.226562 212.304688 66.585938 210.253906 67.789062 208.535156 C 69.078125 206.683594 71.304688 205.644531 73.683594 205.644531 C 74.550781 205.644531 75.441406 205.785156 76.3125 206.074219 L 117.398438 219.683594 C 117.632812 219.761719 117.875 219.808594 118.125 219.824219 L 200.515625 225.667969 C 206.429688 226.085938 211.988281 228.261719 216.703125 232.046875 C 217.988281 233.054688 219.808594 232.808594 220.832031 231.527344 C 221.847656 230.246094 221.597656 228.351562 220.320312 227.328125 C 214.765625 222.863281 208.0625 220.238281 200.933594 219.734375 L 138.347656 215.300781 C 134.21875 214.851562 131.082031 211.265625 131.347656 207.289062 C 131.597656 203.539062 134.738281 200.523438 138.457031 200.273438 L 236.382812 200.273438 C 248.542969 200.265625 260.277344 205.304688 268.585938 214.09375 Z M 357.273438 194.320312 L 18.023438 194.320312 L 8.855469 180.679688 L 366.441406 180.679688 Z M 357.273438 194.320312 " fill-opacity="1" fill-rule="nonzero"/></g><path fill="#ffffff" d="M 65.203125 149.078125 C 62.195312 153.140625 59.394531 157.410156 56.878906 161.765625 C 56.058594 163.1875 56.542969 165.007812 57.964844 165.828125 C 58.433594 166.097656 58.945312 166.226562 59.449219 166.226562 C 60.480469 166.226562 61.476562 165.691406 62.027344 164.738281 C 64.429688 160.582031 67.109375 156.5 69.984375 152.617188 C 70.960938 151.300781 70.683594 149.433594 69.363281 148.460938 C 68.046875 147.480469 66.183594 147.757812 65.203125 149.078125 Z M 65.203125 149.078125 " fill-opacity="1" fill-rule="nonzero"/><path fill="#ffffff" d="M 170.976562 94.535156 C 170.957031 94.535156 170.929688 94.535156 170.910156 94.535156 C 153.679688 94.933594 127.65625 98.863281 101.507812 115.351562 C 92.058594 121.3125 83.367188 128.453125 75.679688 136.582031 C 74.546875 137.773438 74.601562 139.65625 75.792969 140.785156 C 76.367188 141.332031 77.101562 141.597656 77.839844 141.597656 C 78.628906 141.597656 79.417969 141.289062 80.003906 140.667969 C 87.351562 132.902344 95.652344 126.074219 104.683594 120.378906 C 129.675781 104.621094 154.566406 100.859375 171.046875 100.484375 C 172.691406 100.445312 173.988281 99.082031 173.953125 97.441406 C 173.914062 95.824219 172.589844 94.535156 170.976562 94.535156 Z M 170.976562 94.535156 " fill-opacity="1" fill-rule="nonzero"/><path fill="#ffffff" d="M 308.878906 145.726562 C 290.367188 121.082031 267.460938 108.214844 251.503906 101.761719 C 249.980469 101.144531 248.246094 101.878906 247.628906 103.402344 C 247.015625 104.925781 247.75 106.660156 249.273438 107.273438 C 264.53125 113.449219 286.433594 125.75 304.121094 149.300781 C 306.632812 152.644531 308.988281 156.132812 311.132812 159.667969 C 311.691406 160.589844 312.675781 161.097656 313.675781 161.097656 C 314.203125 161.097656 314.730469 160.957031 315.21875 160.667969 C 316.621094 159.816406 317.070312 157.988281 316.21875 156.582031 C 313.976562 152.878906 311.503906 149.226562 308.878906 145.726562 Z M 308.878906 145.726562 " fill-opacity="1" fill-rule="nonzero"/></svg>