<svg xmlns="http://www.w3.org/2000/svg" xmlns:xlink="http://www.w3.org/1999/xlink" width="500" zoomAndPan="magnify" viewBox="0 0 375 374.999991" height="500" preserveAspectRatio="xMidYMid meet" version="1.0"><defs><clipPath id="64c3f6d692"><path d="M 1.15625 32.214844 L 373.90625 32.214844 L 373.90625 342.714844 L 1.15625 342.714844 Z M 1.15625 32.214844 " clip-rule="nonzero"/></clipPath></defs><path fill="#ffffff" d="M 335.371094 111.59375 C 335.371094 111.59375 340.511719 219.832031 257.976562 286.660156 C 134.882812 386.617188 2.082031 305.511719 2.082031 305.511719 C 2.082031 305.511719 34.355469 306.082031 62.914062 298.371094 C 91.472656 290.660156 111.75 272.382812 111.75 272.382812 C 111.75 272.382812 80.621094 265.8125 64.628906 254.101562 C 48.347656 242.394531 42.351562 219.832031 42.351562 219.832031 C 42.351562 219.832031 52.917969 220.6875 59.773438 220.6875 C 66.628906 220.402344 74.910156 217.261719 74.910156 217.261719 C 74.910156 217.261719 52.632812 214.691406 31.785156 191.273438 C 15.507812 172.996094 16.648438 142.4375 16.648438 142.4375 C 16.648438 142.4375 26.359375 148.148438 31.785156 149.574219 C 36.925781 151.003906 46.921875 151.003906 46.921875 151.003906 C 46.921875 151.003906 27.5 139.292969 18.648438 109.59375 C 10.078125 79.605469 26.644531 49.332031 26.644531 49.332031 C 26.644531 49.332031 55.203125 84.175781 98.328125 106.738281 C 141.453125 129.296875 182.007812 128.441406 182.007812 128.441406 C 182.007812 128.441406 176.011719 110.449219 186.292969 84.175781 C 196.574219 57.613281 219.992188 38.765625 255.40625 35.910156 C 290.820312 33.054688 313.378906 59.898438 313.378906 59.898438 C 313.378906 59.898438 324.234375 57.898438 336.800781 53.332031 C 349.367188 48.761719 361.644531 43.050781 361.644531 43.050781 C 361.644531 43.050781 357.363281 56.472656 348.792969 67.039062 C 340.226562 77.605469 330.515625 83.890625 330.515625 83.890625 C 330.515625 83.890625 341.65625 83.03125 352.792969 79.890625 C 363.929688 76.75 370.214844 73.609375 370.214844 73.609375 C 357.933594 95.3125 335.371094 111.59375 335.371094 111.59375 Z M 335.371094 111.59375 " fill-opacity="1" fill-rule="nonzero"/><g clip-path="url(#64c3f6d692)"><path fill="#ffffff" d="M 186.292969 525.132812 C -0.488281 525.132812 -152.707031 373.195312 -152.707031 186.132812 C -152.707031 -0.933594 -0.488281 -152.867188 186.292969 -152.867188 C 373.070312 -152.867188 525.292969 -0.648438 525.292969 186.132812 C 525.292969 372.910156 373.355469 525.132812 186.292969 525.132812 Z M 186.292969 -134.304688 C 9.507812 -134.304688 -134.144531 9.347656 -134.144531 186.132812 C -134.144531 362.914062 9.507812 506.566406 186.292969 506.566406 C 363.074219 506.566406 506.726562 362.914062 506.726562 186.132812 C 506.726562 9.347656 363.074219 -134.304688 186.292969 -134.304688 Z M 186.292969 -134.304688 " fill-opacity="1" fill-rule="nonzero"/></g></svg>